# Created with Anim8or 0.98
# Object "object01":

mtllib sword.mtl

# Begin Group:
# Shape "mesh01":
g mesh01
# No. points 108:
v 0 -1 0
v 0.62500 -0.93750 0
v 1.25 -0.87500 0
v 1.875 -0.81250 0
v 2.5 -0.75000 0
v 3.125 -0.68750 0
v 3.75 -0.62500 0
v 4.375 -0.56250 0
v 5 -0.50000 0
v 0 -0.86603 -0.50000
v 0.62500 -0.81190 -0.46875
v 1.25 -0.75777 -0.43750
v 1.875 -0.70365 -0.40625
v 2.5 -0.64952 -0.37500
v 3.125 -0.59539 -0.34375
v 3.75 -0.54127 -0.31250
v 4.375 -0.48714 -0.28125
v 5 -0.43301 -0.25000
v 0 -0.50000 -0.86603
v 0.62500 -0.46875 -0.81190
v 1.25 -0.43750 -0.75777
v 1.875 -0.40625 -0.70365
v 2.5 -0.37500 -0.64952
v 3.125 -0.34375 -0.59539
v 3.75 -0.31250 -0.54127
v 4.375 -0.28125 -0.48714
v 5 -0.25000 -0.43301
v 0 0 -1
v 0.62500 0 -0.93750
v 1.25 0 -0.87500
v 1.875 0 -0.81250
v 2.5 0 -0.75000
v 3.125 0 -0.68750
v 3.75 0 -0.62500
v 4.375 0 -0.56250
v 5 0 -0.50000
v 0 0.50000 -0.86603
v 0.62500 0.46875 -0.81190
v 1.25 0.43750 -0.75777
v 1.875 0.40625 -0.70365
v 2.5 0.37500 -0.64952
v 3.125 0.34375 -0.59539
v 3.75 0.31250 -0.54127
v 4.375 0.28125 -0.48714
v 5 0.25000 -0.43301
v 0 0.86603 -0.50000
v 0.62500 0.81190 -0.46875
v 1.25 0.75777 -0.43750
v 1.875 0.70365 -0.40625
v 2.5 0.64952 -0.37500
v 3.125 0.59539 -0.34375
v 3.75 0.54127 -0.31250
v 4.375 0.48714 -0.28125
v 5 0.43301 -0.25000
v 0 1 0
v 0.62500 0.93750 0
v 1.25 0.87500 0
v 1.875 0.81250 0
v 2.5 0.75000 0
v 3.125 0.68750 0
v 3.75 0.62500 0
v 4.375 0.56250 0
v 5 0.50000 0
v 0 0.86603 0.50000
v 0.62500 0.81190 0.46875
v 1.25 0.75777 0.43750
v 1.875 0.70365 0.40625
v 2.5 0.64952 0.37500
v 3.125 0.59539 0.34375
v 3.75 0.54127 0.31250
v 4.375 0.48714 0.28125
v 5 0.43301 0.25000
v 0 0.50000 0.86603
v 0.62500 0.46875 0.81190
v 1.25 0.43750 0.75777
v 1.875 0.40625 0.70365
v 2.5 0.37500 0.64952
v 3.125 0.34375 0.59539
v 3.75 0.31250 0.54127
v 4.375 0.28125 0.48714
v 5 0.25000 0.43301
v 0 0 1
v 0.62500 0 0.93750
v 1.25 0 0.87500
v 1.875 0 0.81250
v 2.5 0 0.75000
v 3.125 0 0.68750
v 3.75 0 0.62500
v 4.375 0 0.56250
v 5 0 0.50000
v 0 -0.50000 0.86603
v 0.62500 -0.46875 0.81190
v 1.25 -0.43750 0.75777
v 1.875 -0.40625 0.70365
v 2.5 -0.37500 0.64952
v 3.125 -0.34375 0.59539
v 3.75 -0.31250 0.54127
v 4.375 -0.28125 0.48714
v 5 -0.25000 0.43301
v 0 -0.86603 0.50000
v 0.62500 -0.81190 0.46875
v 1.25 -0.75777 0.43750
v 1.875 -0.70365 0.40625
v 2.5 -0.64952 0.37500
v 3.125 -0.59539 0.34375
v 3.75 -0.54127 0.31250
v 4.375 -0.48714 0.28125
v 5 -0.43301 0.25000

# No. normals 230:
vn 0.09615 -0.96145 -0.25762
vn 0.09615 -0.96145 -0.25762
vn 0.09615 -0.96145 -0.25762
vn 0.09615 -0.96145 -0.25762
vn 0.09615 -0.96145 -0.25762
vn 0.09615 -0.96145 -0.25762
vn 0.09615 -0.96145 -0.25762
vn 0.09615 -0.96145 -0.25762
vn 0.09615 -0.70383 -0.70383
vn 0.09615 -0.70383 -0.70383
vn 0.09615 -0.70383 -0.70383
vn 0.09615 -0.70383 -0.70383
vn 0.09615 -0.70383 -0.70383
vn 0.09615 -0.70383 -0.70383
vn 0.09615 -0.70383 -0.70383
vn 0.09615 -0.70383 -0.70383
vn 0.09615 -0.25762 -0.96145
vn 0.09615 -0.25762 -0.96145
vn 0.09615 -0.25762 -0.96145
vn 0.09615 -0.25762 -0.96145
vn 0.09615 -0.25762 -0.96145
vn 0.09615 -0.25762 -0.96145
vn 0.09615 -0.25762 -0.96145
vn 0.09615 -0.25762 -0.96145
vn 0.09615 0.25762 -0.96145
vn 0.09615 0.25762 -0.96145
vn 0.09615 0.25762 -0.96145
vn 0.09615 0.25762 -0.96145
vn 0.09615 0.25762 -0.96145
vn 0.09615 0.25762 -0.96145
vn 0.09615 0.25762 -0.96145
vn 0.09615 0.25762 -0.96145
vn 0.09614 0.70383 -0.70383
vn 0.09615 0.70383 -0.70383
vn 0.09614 0.70383 -0.70383
vn 0.09615 0.70383 -0.70383
vn 0.09614 0.70383 -0.70383
vn 0.09615 0.70383 -0.70383
vn 0.09614 0.70383 -0.70383
vn 0.09614 0.70383 -0.70383
vn 0.09614 0.96145 -0.25762
vn 0.09615 0.96145 -0.25762
vn 0.09614 0.96145 -0.25762
vn 0.09615 0.96145 -0.25762
vn 0.09614 0.96145 -0.25762
vn 0.09615 0.96145 -0.25762
vn 0.09614 0.96145 -0.25762
vn 0.09614 0.96145 -0.25762
vn 0.09614 0.96145 0.25762
vn 0.09614 0.96145 0.25762
vn 0.09614 0.96145 0.25762
vn 0.09614 0.96145 0.25762
vn 0.09614 0.96145 0.25762
vn 0.09614 0.96145 0.25762
vn 0.09614 0.96145 0.25762
vn 0.09614 0.96145 0.25762
vn 0.09614 0.70383 0.70383
vn 0.09615 0.70383 0.70383
vn 0.09614 0.70383 0.70383
vn 0.09615 0.70383 0.70383
vn 0.09614 0.70383 0.70383
vn 0.09615 0.70383 0.70383
vn 0.09614 0.70383 0.70383
vn 0.09614 0.70383 0.70383
vn 0.09615 0.25762 0.96145
vn 0.09615 0.25762 0.96145
vn 0.09615 0.25762 0.96145
vn 0.09615 0.25762 0.96145
vn 0.09615 0.25762 0.96145
vn 0.09615 0.25762 0.96145
vn 0.09615 0.25762 0.96145
vn 0.09615 0.25762 0.96145
vn 0.09615 -0.25762 0.96145
vn 0.09615 -0.25762 0.96145
vn 0.09615 -0.25762 0.96145
vn 0.09615 -0.25762 0.96145
vn 0.09615 -0.25762 0.96145
vn 0.09615 -0.25762 0.96145
vn 0.09615 -0.25762 0.96145
vn 0.09615 -0.25762 0.96145
vn 0.09615 -0.70383 0.70383
vn 0.09615 -0.70383 0.70383
vn 0.09615 -0.70383 0.70383
vn 0.09615 -0.70383 0.70383
vn 0.09615 -0.70383 0.70383
vn 0.09615 -0.70383 0.70383
vn 0.09615 -0.70383 0.70383
vn 0.09615 -0.70383 0.70383
vn 0.09615 -0.96145 0.25762
vn 0.09615 -0.96145 0.25762
vn 0.09615 -0.96145 0.25762
vn 0.09615 -0.96145 0.25762
vn 0.09615 -0.96145 0.25762
vn 0.09615 -0.96145 0.25762
vn 0.09615 -0.96145 0.25762
vn 0.09615 -0.96145 0.25762
vn 1 0 0
vn -1 0 0
vn 0.09950 -0.99504 0
vn -1 0 0
vn 0.09950 -0.99504 0
vn 0.09950 -0.99504 0
vn 0.09950 -0.99504 0
vn 0.09950 -0.99504 0
vn 0.09950 -0.99504 0
vn 0.09950 -0.99504 0
vn 0.09950 -0.99504 0
vn 0.09950 -0.99504 0
vn 1 0 0
vn 0.09950 -0.86173 -0.49752
vn -1 0 0
vn 0.09950 -0.86173 -0.49752
vn 0.09950 -0.86173 -0.49752
vn 0.09950 -0.86173 -0.49752
vn 0.09950 -0.86173 -0.49752
vn 0.09950 -0.86173 -0.49752
vn 0.09950 -0.86173 -0.49752
vn 0.09950 -0.86173 -0.49752
vn 0.09950 -0.86173 -0.49752
vn 1 0 0
vn 0.09950 -0.49752 -0.86173
vn -1 0 0
vn 0.09950 -0.49752 -0.86173
vn 0.09950 -0.49752 -0.86173
vn 0.09950 -0.49752 -0.86173
vn 0.09950 -0.49752 -0.86173
vn 0.09950 -0.49752 -0.86173
vn 0.09950 -0.49752 -0.86173
vn 0.09950 -0.49752 -0.86173
vn 0.09950 -0.49752 -0.86173
vn 1 0 0
vn 0.09950 0 -0.99504
vn -1 0 0
vn 0.09950 0 -0.99504
vn 0.09950 0 -0.99504
vn 0.09950 0 -0.99504
vn 0.09950 0 -0.99504
vn 0.09950 0 -0.99504
vn 0.09950 0 -0.99504
vn 0.09950 0 -0.99504
vn 0.09950 0 -0.99504
vn 1 0 0
vn 0.09950 0.49752 -0.86173
vn -1 0 0
vn 0.09950 0.49752 -0.86173
vn 0.09950 0.49752 -0.86173
vn 0.09950 0.49752 -0.86173
vn 0.09950 0.49752 -0.86173
vn 0.09950 0.49752 -0.86173
vn 0.09950 0.49752 -0.86173
vn 0.09950 0.49752 -0.86173
vn 0.09950 0.49752 -0.86173
vn 1 0 0
vn 0.09950 0.86173 -0.49752
vn -1 0 0
vn 0.09950 0.86173 -0.49752
vn 0.09950 0.86173 -0.49752
vn 0.09950 0.86173 -0.49752
vn 0.09950 0.86173 -0.49752
vn 0.09950 0.86173 -0.49752
vn 0.09950 0.86173 -0.49752
vn 0.09950 0.86173 -0.49752
vn 0.09950 0.86173 -0.49752
vn 1 0 0
vn 0.09950 0.99504 0
vn -1 0 0
vn 0.09950 0.99504 0
vn 0.09950 0.99504 0
vn 0.09950 0.99504 0
vn 0.09950 0.99504 0
vn 0.09950 0.99504 0
vn 0.09950 0.99504 0
vn 0.09950 0.99504 0
vn 0.09950 0.99504 0
vn 1 0 0
vn 0.09950 0.86173 0.49752
vn -1 0 0
vn 0.09950 0.86173 0.49752
vn 0.09950 0.86173 0.49752
vn 0.09950 0.86173 0.49752
vn 0.09950 0.86173 0.49752
vn 0.09950 0.86173 0.49752
vn 0.09950 0.86173 0.49752
vn 0.09950 0.86173 0.49752
vn 0.09950 0.86173 0.49752
vn 1 0 0
vn 0.09950 0.49752 0.86173
vn -1 0 0
vn 0.09950 0.49752 0.86173
vn 0.09950 0.49752 0.86173
vn 0.09950 0.49752 0.86173
vn 0.09950 0.49752 0.86173
vn 0.09950 0.49752 0.86173
vn 0.09950 0.49752 0.86173
vn 0.09950 0.49752 0.86173
vn 0.09950 0.49752 0.86173
vn 1 0 0
vn 0.09950 0 0.99504
vn -1 0 0
vn 0.09950 0 0.99504
vn 0.09950 0 0.99504
vn 0.09950 0 0.99504
vn 0.09950 0 0.99504
vn 0.09950 0 0.99504
vn 0.09950 0 0.99504
vn 0.09950 0 0.99504
vn 0.09950 0 0.99504
vn 1 0 0
vn 0.09950 -0.49752 0.86173
vn -1 0 0
vn 0.09950 -0.49752 0.86173
vn 0.09950 -0.49752 0.86173
vn 0.09950 -0.49752 0.86173
vn 0.09950 -0.49752 0.86173
vn 0.09950 -0.49752 0.86173
vn 0.09950 -0.49752 0.86173
vn 0.09950 -0.49752 0.86173
vn 0.09950 -0.49752 0.86173
vn 1 0 0
vn 0.09950 -0.86173 0.49752
vn -1 0 0
vn 0.09950 -0.86173 0.49752
vn 0.09950 -0.86173 0.49752
vn 0.09950 -0.86173 0.49752
vn 0.09950 -0.86173 0.49752
vn 0.09950 -0.86173 0.49752
vn 0.09950 -0.86173 0.49752
vn 0.09950 -0.86173 0.49752
vn 0.09950 -0.86173 0.49752
vn 1 0 0

# No. texture coordinates 117:
vt 0 0
vt 0 0.12500
vt 0 0.25000
vt 0 0.37500
vt 0 0.50000
vt 0 0.62500
vt 0 0.75000
vt 0 0.87500
vt 0 1
vt 0.08333 0
vt 0.08333 0.12500
vt 0.08333 0.25000
vt 0.08333 0.37500
vt 0.08333 0.50000
vt 0.08333 0.62500
vt 0.08333 0.75000
vt 0.08333 0.87500
vt 0.08333 1
vt 0.16667 0
vt 0.16667 0.12500
vt 0.16667 0.25000
vt 0.16667 0.37500
vt 0.16667 0.50000
vt 0.16667 0.62500
vt 0.16667 0.75000
vt 0.16667 0.87500
vt 0.16667 1
vt 0.25000 0
vt 0.25000 0.12500
vt 0.25000 0.25000
vt 0.25000 0.37500
vt 0.25000 0.50000
vt 0.25000 0.62500
vt 0.25000 0.75000
vt 0.25000 0.87500
vt 0.25000 1
vt 0.33333 0
vt 0.33333 0.12500
vt 0.33333 0.25000
vt 0.33333 0.37500
vt 0.33333 0.50000
vt 0.33333 0.62500
vt 0.33333 0.75000
vt 0.33333 0.87500
vt 0.33333 1
vt 0.41667 0
vt 0.41667 0.12500
vt 0.41667 0.25000
vt 0.41667 0.37500
vt 0.41667 0.50000
vt 0.41667 0.62500
vt 0.41667 0.75000
vt 0.41667 0.87500
vt 0.41667 1
vt 0.50000 0
vt 0.50000 0.12500
vt 0.50000 0.25000
vt 0.50000 0.37500
vt 0.50000 0.50000
vt 0.50000 0.62500
vt 0.50000 0.75000
vt 0.50000 0.87500
vt 0.50000 1
vt 0.58333 0
vt 0.58333 0.12500
vt 0.58333 0.25000
vt 0.58333 0.37500
vt 0.58333 0.50000
vt 0.58333 0.62500
vt 0.58333 0.75000
vt 0.58333 0.87500
vt 0.58333 1
vt 0.66667 0
vt 0.66667 0.12500
vt 0.66667 0.25000
vt 0.66667 0.37500
vt 0.66667 0.50000
vt 0.66667 0.62500
vt 0.66667 0.75000
vt 0.66667 0.87500
vt 0.66667 1
vt 0.75000 0
vt 0.75000 0.12500
vt 0.75000 0.25000
vt 0.75000 0.37500
vt 0.75000 0.50000
vt 0.75000 0.62500
vt 0.75000 0.75000
vt 0.75000 0.87500
vt 0.75000 1
vt 0.83333 0
vt 0.83333 0.12500
vt 0.83333 0.25000
vt 0.83333 0.37500
vt 0.83333 0.50000
vt 0.83333 0.62500
vt 0.83333 0.75000
vt 0.83333 0.87500
vt 0.83333 1
vt 0.91667 0
vt 0.91667 0.12500
vt 0.91667 0.25000
vt 0.91667 0.37500
vt 0.91667 0.50000
vt 0.91667 0.62500
vt 0.91667 0.75000
vt 0.91667 0.87500
vt 0.91667 1
vt 1 0
vt 1 0.12500
vt 1 0.25000
vt 1 0.37500
vt 1 0.50000
vt 1 0.62500
vt 1 0.75000
vt 1 0.87500
vt 1 1

# No. faces 98:

usemtl ___default___

f 11/11/112 2/2/101 1/1/99 10/10/110
f 12/12/113 3/3/102 2/2/101 11/11/112
f 13/13/114 4/4/103 3/3/102 12/12/113
f 14/14/115 5/5/104 4/4/103 13/13/114
f 15/15/116 6/6/105 5/5/104 14/14/115
f 16/16/117 7/7/106 6/6/105 15/15/116
f 17/17/118 8/8/107 7/7/106 16/16/117
f 18/18/119 9/9/108 8/8/107 17/17/118
f 20/20/123 11/11/112 10/10/110 19/19/121
f 21/21/124 12/12/113 11/11/112 20/20/123
f 22/22/125 13/13/114 12/12/113 21/21/124
f 23/23/126 14/14/115 13/13/114 22/22/125
f 24/24/127 15/15/116 14/14/115 23/23/126
f 25/25/128 16/16/117 15/15/116 24/24/127
f 26/26/129 17/17/118 16/16/117 25/25/128
f 27/27/130 18/18/119 17/17/118 26/26/129
f 29/29/134 20/20/123 19/19/121 28/28/132
f 30/30/135 21/21/124 20/20/123 29/29/134
f 31/31/136 22/22/125 21/21/124 30/30/135
f 32/32/137 23/23/126 22/22/125 31/31/136
f 33/33/138 24/24/127 23/23/126 32/32/137
f 34/34/139 25/25/128 24/24/127 33/33/138
f 35/35/140 26/26/129 25/25/128 34/34/139
f 36/36/141 27/27/130 26/26/129 35/35/140
f 38/38/145 29/29/134 28/28/132 37/37/143
f 39/39/146 30/30/135 29/29/134 38/38/145
f 40/40/147 31/31/136 30/30/135 39/39/146
f 41/41/148 32/32/137 31/31/136 40/40/147
f 42/42/149 33/33/138 32/32/137 41/41/148
f 43/43/150 34/34/139 33/33/138 42/42/149
f 44/44/151 35/35/140 34/34/139 43/43/150
f 45/45/152 36/36/141 35/35/140 44/44/151
f 47/47/156 38/38/145 37/37/143 46/46/154
f 48/48/157 39/39/146 38/38/145 47/47/156
f 49/49/158 40/40/147 39/39/146 48/48/157
f 50/50/159 41/41/148 40/40/147 49/49/158
f 51/51/160 42/42/149 41/41/148 50/50/159
f 52/52/161 43/43/150 42/42/149 51/51/160
f 53/53/162 44/44/151 43/43/150 52/52/161
f 54/54/163 45/45/152 44/44/151 53/53/162
f 56/56/167 47/47/156 46/46/154 55/55/165
f 57/57/168 48/48/157 47/47/156 56/56/167
f 58/58/169 49/49/158 48/48/157 57/57/168
f 59/59/170 50/50/159 49/49/158 58/58/169
f 60/60/171 51/51/160 50/50/159 59/59/170
f 61/61/172 52/52/161 51/51/160 60/60/171
f 62/62/173 53/53/162 52/52/161 61/61/172
f 63/63/174 54/54/163 53/53/162 62/62/173
f 65/65/178 56/56/167 55/55/165 64/64/176
f 66/66/179 57/57/168 56/56/167 65/65/178
f 67/67/180 58/58/169 57/57/168 66/66/179
f 68/68/181 59/59/170 58/58/169 67/67/180
f 69/69/182 60/60/171 59/59/170 68/68/181
f 70/70/183 61/61/172 60/60/171 69/69/182
f 71/71/184 62/62/173 61/61/172 70/70/183
f 72/72/185 63/63/174 62/62/173 71/71/184
f 74/74/189 65/65/178 64/64/176 73/73/187
f 75/75/190 66/66/179 65/65/178 74/74/189
f 76/76/191 67/67/180 66/66/179 75/75/190
f 77/77/192 68/68/181 67/67/180 76/76/191
f 78/78/193 69/69/182 68/68/181 77/77/192
f 79/79/194 70/70/183 69/69/182 78/78/193
f 80/80/195 71/71/184 70/70/183 79/79/194
f 81/81/196 72/72/185 71/71/184 80/80/195
f 83/83/200 74/74/189 73/73/187 82/82/198
f 84/84/201 75/75/190 74/74/189 83/83/200
f 85/85/202 76/76/191 75/75/190 84/84/201
f 86/86/203 77/77/192 76/76/191 85/85/202
f 87/87/204 78/78/193 77/77/192 86/86/203
f 88/88/205 79/79/194 78/78/193 87/87/204
f 89/89/206 80/80/195 79/79/194 88/88/205
f 90/90/207 81/81/196 80/80/195 89/89/206
f 92/92/211 83/83/200 82/82/198 91/91/209
f 93/93/212 84/84/201 83/83/200 92/92/211
f 94/94/213 85/85/202 84/84/201 93/93/212
f 95/95/214 86/86/203 85/85/202 94/94/213
f 96/96/215 87/87/204 86/86/203 95/95/214
f 97/97/216 88/88/205 87/87/204 96/96/215
f 98/98/217 89/89/206 88/88/205 97/97/216
f 99/99/218 90/90/207 89/89/206 98/98/217
f 101/101/222 92/92/211 91/91/209 100/100/220
f 102/102/223 93/93/212 92/92/211 101/101/222
f 103/103/224 94/94/213 93/93/212 102/102/223
f 104/104/225 95/95/214 94/94/213 103/103/224
f 105/105/226 96/96/215 95/95/214 104/104/225
f 106/106/227 97/97/216 96/96/215 105/105/226
f 107/107/228 98/98/217 97/97/216 106/106/227
f 108/108/229 99/99/218 98/98/217 107/107/228
f 2/110/101 101/101/222 100/100/220 1/109/99
f 3/111/102 102/102/223 101/101/222 2/110/101
f 4/112/103 103/103/224 102/102/223 3/111/102
f 5/113/104 104/104/225 103/103/224 4/112/103
f 6/114/105 105/105/226 104/104/225 5/113/104
f 7/115/106 106/106/227 105/105/226 6/114/105
f 8/116/107 107/107/228 106/106/227 7/115/106
f 9/117/108 108/108/229 107/107/228 8/116/107
f 9/9/109 18/18/120 27/27/131 36/36/142 45/45/153 54/54/164 63/63/175 72/72/186 81/81/197 90/90/208 99/99/219 108/108/230
f 100/100/221 91/91/210 82/82/199 73/73/188 64/64/177 55/55/166 46/46/155 37/37/144 28/28/133 19/19/122 10/10/111 1/1/100

# Shape "mesh02":
g mesh02
# No. points 8:
v -10 -2 -0.50000
v -10 -2 0.50000
v -10 2 -0.50000
v -10 2 0.50000
v 0 -2 -0.50000
v 0 -2 0.50000
v 0 2 -0.50000
v 0 2 0.50000

# No. normals 30:
vn 0 0 -1
vn 0 0 1
vn -1 0 0
vn 1 0 0
vn 0 1 0
vn 0 -1 0
vn 0 0 -1
vn 0 -1 0
vn -1 0 0
vn 0 0 1
vn 0 -1 0
vn -1 0 0
vn 0 0 -1
vn 0 1 0
vn -1 0 0
vn 0 0 1
vn 0 1 0
vn -1 0 0
vn 0 0 -1
vn 0 -1 0
vn 1 0 0
vn 0 0 1
vn 0 -1 0
vn 1 0 0
vn 0 0 -1
vn 0 1 0
vn 1 0 0
vn 0 0 1
vn 0 1 0
vn 1 0 0

# No. texture coordinates 8:
vt 0 0
vt 0 0
vt 0 1
vt 0 1
vt 1 0
vt 1 0
vt 1 1
vt 1 1

# No. faces 6:

usemtl ___default___

f 111/120/243 115/124/255 113/122/249 109/118/237
f 114/123/252 116/125/258 112/121/246 110/119/240
f 110/119/242 112/121/248 111/120/245 109/118/239
f 115/124/257 116/125/260 114/123/254 113/122/251
f 112/121/247 116/125/259 115/124/256 111/120/244
f 113/122/250 114/123/253 110/119/241 109/118/238

# End Group:

# End of Object "object01"
