# Created with Anim8or 0.98
# Object "object01":

mtllib test00.mtl

# Shape "mesh01":
g mesh01
# No. points 8:
v -0.50000 -0.50000 -0.50000
v -0.50000 -0.50000 0.50000
v -0.50000 0.50000 -0.50000
v -0.50000 0.50000 0.50000
v 0.50000 -0.50000 -0.50000
v 0.50000 -0.50000 0.50000
v 0.50000 0.50000 -0.50000
v 0.50000 0.50000 0.50000

# No. normals 30:
vn 0 0 -1
vn 0 0 1
vn -1 0 0
vn 1 0 0
vn 0 1 0
vn 0 -1 0
vn 0 0 -1
vn 0 -1 0
vn -1 0 0
vn 0 0 1
vn 0 -1 0
vn -1 0 0
vn 0 0 -1
vn 0 1 0
vn -1 0 0
vn 0 0 1
vn 0 1 0
vn -1 0 0
vn 0 0 -1
vn 0 -1 0
vn 1 0 0
vn 0 0 1
vn 0 -1 0
vn 1 0 0
vn 0 0 -1
vn 0 1 0
vn 1 0 0
vn 0 0 1
vn 0 1 0
vn 1 0 0

# No. texture coordinates 16:
vt 0.66562 0.32386
vt 0.87028 0.44001
vt 0.07494 0.32389
vt 0.37026 0.16817
vt 0.57494 0.67611
vt 0.37028 0.55999
vt 0.16562 0.67614
vt 0.87026 0.83183
vt 1.07494 0.32389
vt 1.16562 0.67614
vt 1.16562 0.67614
vt 1.07494 0.32389
vt 0.77148 0.93362
vt 0.88170 0.55778
vt 1.21571 0.67092
vt 1.06472 0.40757

# No. faces 6:

usemtl ___default___

f 4/6/17 8/7/29 7/3/26 3/4/14
f 5/2/20 6/8/23 2/5/11 1/1/8

usemtl material01

f 3/4/13 7/9/25 5/2/19 1/1/7
f 6/8/22 8/10/28 4/6/16 2/5/10
f 2/14/12 4/16/18 3/15/15 1/13/9
f 7/12/27 8/11/30 6/8/24 5/2/21

# End of Object "object01"
