# Created with Anim8or 0.98
# Object "object01":

mtllib test.mtl

# Shape "mesh01":
g mesh01
# No. points 8:
v -20.0855 -20.0855 -20.0855
v 20.0855 -20.0855 -20.0855
v 20.0855 -20.0855 20.0855
v -20.0855 -20.0855 20.0855
v -20.0855 20.0855 -20.0855
v 20.0855 20.0855 -20.0855
v 20.0855 20.0855 20.0855
v -20.0855 20.0855 20.0855

# No. normals 30:
vn 0 0 -1
vn 0 0 1
vn 1 0 0
vn 0 1 0
vn -1 0 0
vn 0 -1 0
vn 0 0 -1
vn 0 -1 0
vn -1 0 0
vn 0 0 -1
vn 0 -1 0
vn 1 0 0
vn 0 0 1
vn 0 -1 0
vn 1 0 0
vn 0 0 1
vn 0 -1 0
vn -1 0 0
vn 0 0 -1
vn -1 0 0
vn 0 1 0
vn 0 0 -1
vn 0 1 0
vn 1 0 0
vn 0 0 1
vn 0 1 0
vn 1 0 0
vn 0 0 1
vn -1 0 0
vn 0 1 0

# No. texture coordinates 24:
vt -0.50000 -0.50000
vt 1.5 -0.50000
vt 1.5 1.5
vt -0.50000 1.5
vt 1.5 -0.50000
vt -0.50000 -0.50000
vt -0.50000 1.5
vt 1.5 1.5
vt 1 0
vt 0 0
vt 0 1
vt 1 1
vt 0 0
vt 1 0
vt 1 1
vt 0 1
vt 0 0
vt 1 0
vt 1 1
vt 0 1
vt 0 0
vt 0 1
vt 1 1
vt 1 0

# No. faces 6:

usemtl ___default___

f 8/7/30 7/8/26 6/3/23 5/4/21
f 2/2/11 3/5/14 4/6/17 1/1/8

usemtl material01

f 5/16/19 6/15/22 2/14/10 1/13/7
f 7/12/25 8/11/28 4/10/16 3/9/13
f 6/20/24 7/19/27 3/18/15 2/17/12
f 4/24/18 8/23/29 5/22/20 1/21/9

# End of Object "object01"
