# Created with Anim8or 0.98
# Object "object01":

mtllib test.mtl

# Shape "mesh01":
g mesh01
# No. points 8:
v -100 -25 -100
v -100 -25 100
v -100 25 -100
v -100 25 100
v 100 -25 -100
v 100 -25 100
v 100 25 -100
v 100 25 100

# No. normals 27:
vn 0 0 -1
vn 0 0 1
vn -1 0 0
vn 1 0 0
vn 0 -1 0
vn 0 0 -1
vn 0 -1 0
vn -1 0 0
vn 0 0 1
vn 0 -1 0
vn -1 0 0
vn 0 0 -1
vn -1 0 0
vn 0 0 1
vn -1 0 0
vn 0 0 -1
vn 0 -1 0
vn 1 0 0
vn 0 0 1
vn 0 -1 0
vn 1 0 0
vn 0 0 -1
vn 1 0 0
vn 0 0 1
vn 1 0 0
vn -1 0 0
vn 1 0 0

# No. texture coordinates 20:
vt 0 0
vt 0 0
vt 0 1
vt 0 1
vt 1 0
vt 1 0
vt 1 1
vt 1 1
vt 0 -1.5
vt 0 2.5
vt 1 2.5
vt 1 -1.5
vt 0.99844 1.01811
vt -0.00138 1.08597
vt -0.00567 0.08646
vt 0.99415 0.01860
vt 0.98822 0.94860
vt 0.98389 -0.05121
vt -0.01559 0.01904
vt -0.01125 1.01885

# No. faces 5:

usemtl material01

f 3/3/12 7/7/22 5/5/16 1/1/6
f 6/6/19 8/8/24 4/4/14 2/2/9
f 2/20/11 4/19/15 3/18/13 1/17/8
f 7/16/23 8/15/25 6/14/21 5/13/18

usemtl material02

f 5/12/17 6/11/20 2/10/10 1/9/7

# End of Object "object01"
