# Created with Anim8or 0.98
# Object "object01":

mtllib test.mtl

# Shape "mesh01":
g mesh01
# No. points 8:
v -40 -40 -40
v -40 -40 40
v -40 40 -40
v -40 40 40
v 40 -40 -40
v 40 -40 40
v 40 40 -40
v 40 40 40

# No. normals 27:
vn 0 0 -1
vn 0 0 1
vn -1 0 0
vn 1 0 0
vn 0 -1 0
vn 0 0 -1
vn 0 -1 0
vn -1 0 0
vn 0 0 1
vn 0 -1 0
vn -1 0 0
vn 0 0 -1
vn -1 0 0
vn 0 0 1
vn -1 0 0
vn 0 0 -1
vn 0 -1 0
vn 1 0 0
vn 0 0 1
vn 0 -1 0
vn 1 0 0
vn 0 0 -1
vn 1 0 0
vn 0 0 1
vn 1 0 0
vn 0 0 -1
vn 0 0 1

# No. texture coordinates 20:
vt 0 0
vt 0 0
vt 0 1
vt 0 1
vt 1 0
vt 1 0
vt 1 1
vt 1 1
vt 0 0
vt 0 1
vt 1 1
vt 1 0
vt 0 0
vt 1 0
vt 1 1
vt 0 1
vt 0 0
vt 0 1
vt 1 1
vt 1 0

# No. faces 5:

usemtl material02

f 5/12/17 6/11/20 2/10/10 1/9/7

usemtl material01

f 3/3/12 7/7/22 5/5/16 1/1/6
f 6/6/19 8/8/24 4/4/14 2/2/9
f 2/16/11 4/15/15 3/14/13 1/13/8
f 7/20/23 8/19/25 6/18/21 5/17/18

# End of Object "object01"
